<svg height="1000" width="1000">
    <path fill="none" stroke="black" d="M 990,500,L 187.6622450231418,122.44851103986349,L 989.5701867484406,520.5190703273079,L 172.12600288415933,135.85903551607691,L 329.19969681231066,959.2681748510269,L 919.1284874786483,246.16676540716617,L 310.11736263846956,951.7129442783653,L 929.3902732214931,263.9406996901595,L 291.3681471331146,943.3652557083497,L 187.6622450231418,122.44851103986349,L 571.5806839955818,984.7434431518643,L 103.58167275627574,211.98522637668822,L 631.7707121014803,971.9496577308526,L 80.87151252135163,246.1667654071663,L 651.4183272437242,966.0176929846252,L 70.6097267785068,263.94069969015965,L 670.8003031876895,959.2681748510267,L 796.2535662825635,109.70034016814361,L 11.718498967742903,541.0021432328349,L 896.4183272437242,788.0147736233118,L 272.98494279126714,65.7602461767051,L 908.1314079479487,771.1618591292386,L 689.8826373615304,48.28705572163477,L 115.99020591033855,804.3624123363721,L 938.8987625173123,717.8712378006145,L 129.0724227306394,820.1760959551518,L 254.99999999999977,75.64755214562513,L 929.3902732214931,736.0593003098404,L 91.86859205205127,771.1618591292386,L 708.6318528668855,56.63474429165041,L 884.0097940896615,804.362412336372,L 16.86194183545257,418.28331410911005,L 827.8739971158403,135.85903551607663,L 591.816844147005,981.3207528570574,L 142.80537256350823,164.5719180949427,L 428.41931600441836,984.7434431518643,L 884.0097940896615,195.6375876636278,L 115.99020591033849,195.63758766362793,L 611.8919263542214,977.0536624078485,L 129.07242273063918,179.82390404484852,L 929.3902732214931,263.9406996901595,L 237.44487046029144,86.27931650401274,L 947.6372742448744,699.300955107142,L 157.16496314845097,850.0916130200736,L 237.44487046029144,86.27931650401274,L 955.5904780852431,680.3810308154922,L 203.74643371743633,890.2996598318562,L 220.35035183462827,97.63688752448519,L 969.086553790713,641.6255805027911,L 237.44487046029172,913.7206834959875,L 955.5904780852431,319.6189691845078,L 142.80537256350823,164.5719180949427,L 947.6372742448746,300.69904489285796,L 255.0000000000001,924.352447854375,L 974.6057489530292,621.8580447107788,L 220.35035183462827,97.63688752448519,L 962.7444214163658,661.1446569019058,L 220.3503518346285,902.363112475515,L 955.5904780852431,680.3810308154922,L 187.6622450231422,877.5514889601368,L 947.6372742448744,699.300955107142,L 651.4183272437242,33.982307015374715,L 44.40952191475674,319.61896918450805,L 745,924.352447854375,L 779.6496481653717,97.63688752448508,L 20.70767564043524,601.876728500702,L 368.2292878985197,28.050342269147507,L 16.86194183545257,581.7166858908901,L 779.6496481653717,97.63688752448508,L 727.0150572087323,934.2397538232952,L 44.40952191475674,319.61896918450805,L 857.1946274364918,164.57191809494276,L 510.26178574284495,989.8925349026742,L 115.99020591033849,195.63758766362793,L 896.4183272437242,211.98522637668805,L 348.5816727562758,966.0176929846252,L 908.1314079479484,228.83814087076098,L 329.19969681231066,959.2681748510269,L 988.2815010322572,541.0021432328346,L 551.21894700115,12.684271269546059,L 25.394251046970794,378.1419552892211,L 842.8350368515489,149.9083869799262,L 388.1080736457787,977.0536624078486,L 896.4183272437242,211.98522637668805,L 368.22928789851983,971.9496577308526,L 870.9275772693605,179.82390404484818,L 469.2326454306365,989.0330969298531,L 129.07242273063918,179.82390404484852,L 489.738214257155,989.8925349026742,L 857.1946274364918,164.57191809494276,L 52.36272575512544,300.69904489285807,L 708.6318528668857,943.3652557083495,L 779.6496481653717,97.63688752448508,L 25.394251046970794,621.8580447107788,L 762.5551295397081,86.2793165040124,L 30.913446209287088,641.6255805027913,L 908.1314079479487,771.1618591292386,L 25.394251046970794,621.8580447107788,L 348.5816727562757,33.98230701537477,L 962.7444214163658,338.8553430980943,L 142.80537256350823,164.5719180949427,L 448.7810529988499,987.3157287304539,L 870.9275772693605,179.82390404484818,L 80.87151252135163,246.1667654071663,L 779.6496481653717,97.63688752448508,L 13.86379635590589,561.4132844465092,L 796.2535662825635,109.70034016814361,L 408.18315585299507,981.3207528570574,L 812.3377549768577,122.44851103986309,L 631.7707121014803,971.9496577308526,L 91.86859205205104,228.83814087076166,L 591.816844147005,981.3207528570574,L 157.16496314845102,149.90838697992638,L 388.1080736457787,977.0536624078486,L 827.8739971158403,135.85903551607663,L 20.70767564043524,398.1232714992981,L 884.0097940896615,804.362412336372,L 13.863796355905833,438.5867155534911,L 489.7382142571552,10.1074650973257,L 988.2815010322571,458.9978567671652,L 172.12600288415933,135.85903551607691,L 571.5806839955818,984.7434431518643,L 827.8739971158403,135.85903551607663,L 13.863796355905833,438.5867155534911,L 857.1946274364918,164.57191809494276,L 388.1080736457787,977.0536624078486,L 870.9275772693605,179.82390404484818,L 91.86859205205104,228.83814087076166,L 611.8919263542214,977.0536624078485,L 103.58167275627574,211.98522637668822,L 884.0097940896615,195.6375876636278,L 368.22928789851983,971.9496577308526,L 908.1314079479484,228.83814087076098,L 129.07242273063918,179.82390404484852,L 919.1284874786483,246.16676540716617,L 115.99020591033849,195.63758766362793,L 530.7673545693636,989.0330969298531,L 842.8350368515489,149.9083869799262,L 551.2189470011502,987.3157287304539,L 103.58167275627574,211.98522637668822,L 857.1946274364918,164.57191809494276,L 61.101237482687736,282.1287621993855,L 689.8826373615304,951.7129442783653,L 796.2535662825635,109.70034016814361,L 10.42981325155938,520.5190703273079,L 896.4183272437242,788.0147736233118,L 10,500.00000000000006,L 812.3377549768577,122.44851103986309,L 10.42981325155938,479.480929672692,L 448.7810529988499,12.684271269546059,L 983.1380581645473,418.28331410910926,L 157.16496314845102,149.90838697992638,L 974.6057489530292,378.14195528922085,L 408.1831558529945,18.679247142942643,L 11.718498967742903,541.0021432328349,L 812.3377549768577,122.44851103986309,L 651.4183272437242,966.0176929846252,L 91.86859205205104,228.83814087076166,L 884.0097940896615,195.6375876636278,L 408.18315585299507,981.3207528570574,L 827.8739971158403,135.85903551607663,L 611.8919263542214,977.0536624078485,L 812.3377549768577,122.44851103986309,L 11.718498967742846,458.99785676716544,L 884.0097940896615,804.362412336372,L 291.36814713311423,56.63474429165052,L 70.60972677850691,736.0593003098406,L 727.0150572087318,65.76024617670464,L 842.8350368515489,850.0916130200737,L 310.11736263846944,48.28705572163483,L 52.36272575512561,699.3009551071423,L 745,75.64755214562507,L 44.409521914756795,680.3810308154921,L 919.1284874786484,753.8332345928338,L 157.16496314845097,850.0916130200736,L 929.3902732214931,736.0593003098404,L 670.800303187689,40.73182514897297,L 52.36272575512544,300.69904489285807,L 727.0150572087323,934.2397538232952,L 37.25557858363425,338.8553430980943,L 762.5551295397083,913.7206834959873,L 762.5551295397081,86.2793165040124,L 37.2555785836343,661.1446569019058,L 908.1314079479487,771.1618591292386,L 70.60972677850691,736.0593003098406,L 929.3902732214931,736.0593003098404,L 80.87151252135186,753.8332345928341,L 857.1946274364916,835.4280819050574,L 142.80537256350823,164.5719180949427,L 408.18315585299507,981.3207528570574,L 157.16496314845102,149.90838697992638,L 368.22928789851983,971.9496577308526,L 172.12600288415933,135.85903551607691,L 986.1362036440942,438.5867155534907,L 469.23264543063607,10.966903070146941,L 983.1380581645473,418.28331410910926,L 172.12600288415933,135.85903551607691,L 989.5701867484406,479.4809296726916,L 510.2617857428446,10.1074650973257,L 16.86194183545257,418.28331410911005,L 842.8350368515489,850.0916130200737,L 291.36814713311423,56.63474429165052,L 870.9275772693607,820.1760959551516,L 52.36272575512544,300.69904489285807,L 689.8826373615304,951.7129442783653,L 44.40952191475674,319.61896918450805,L 708.6318528668857,943.3652557083495,L 388.10807364577863,22.94633759215145,L 13.86379635590589,561.4132844465092,L 896.4183272437242,788.0147736233118,L 115.99020591033855,804.3624123363721,L 254.99999999999977,75.64755214562513,L 938.8987625173123,717.8712378006145,L 172.12600288415945,864.1409644839232,L 947.6372742448744,699.300955107142,L 203.74643371743633,890.2996598318562,L 962.7444214163658,661.1446569019058,L 631.7707121014796,28.050342269147393,L 44.40952191475674,319.61896918450805,L 670.8003031876895,959.2681748510267,L 61.101237482687736,282.1287621993855,L 651.4183272437242,966.0176929846252,L 796.2535662825635,109.70034016814361,L 428.41931600441836,984.7434431518643,L 762.5551295397081,86.2793165040124,L 779.6496481653717,902.363112475515,L 30.913446209286974,358.374419497209,L 842.8350368515489,149.9083869799262,L 510.26178574284495,989.8925349026742,L 129.07242273063918,179.82390404484852,L 591.816844147005,981.3207528570574,L 812.3377549768577,122.44851103986309,L 551.2189470011502,987.3157287304539,L 115.99020591033849,195.63758766362793,L 908.1314079479484,228.83814087076098,L 103.58167275627574,211.98522637668822,L 591.816844147005,981.3207528570574,L 428.4193160044179,15.256556848135745,L 10,500.00000000000006,L 884.0097940896615,804.362412336372,L 30.913446209286974,358.374419497209,L 796.2535662825637,890.2996598318562,L 25.394251046970794,378.1419552892211,L 812.337754976858,877.5514889601367,L 745,75.64755214562507,L 70.6097267785068,263.94069969015965,L 870.9275772693605,179.82390404484818,L 428.41931600441836,984.7434431518643,L 779.6496481653717,97.63688752448508,L 689.8826373615304,951.7129442783653,L 70.6097267785068,263.94069969015965,L 884.0097940896615,195.6375876636278,L 348.5816727562758,966.0176929846252,L 172.12600288415933,135.85903551607691,L 908.1314079479484,228.83814087076098,L 30.913446209286974,358.374419497209,L 745,924.352447854375,L 37.25557858363425,338.8553430980943,L 842.8350368515489,149.9083869799262,L 571.5806839955818,984.7434431518643,L 142.80537256350823,164.5719180949427,L 469.2326454306365,989.0330969298531,L 857.1946274364918,164.57191809494276,L 448.7810529988499,987.3157287304539,L 812.3377549768577,122.44851103986309,L 428.41931600441836,984.7434431518643,L 842.8350368515489,149.9083869799262,L 408.18315585299507,981.3207528570574,L 896.4183272437242,211.98522637668805,L 103.58167275627574,211.98522637668822,L 938.8987625173121,282.12876219938516,L 272.9849427912678,934.2397538232952,L 979.2923243595648,601.876728500702,L 591.8168441470049,18.67924714294253,L 30.913446209286974,358.374419497209,L 884.0097940896615,195.6375876636278,L 388.1080736457787,977.0536624078486,L 172.12600288415933,135.85903551607691,L 990,500,L 348.5816727562758,966.0176929846252,L 989.5701867484406,520.5190703273079,L 329.19969681231066,959.2681748510269,L 929.3902732214931,263.9406996901595,L 91.86859205205104,228.83814087076166,L 896.4183272437242,211.98522637668805,L 61.101237482687736,282.1287621993855,L 884.0097940896615,195.6375876636278,L 37.25557858363425,338.8553430980943,L 779.6496481653717,902.363112475515,L 348.5816727562757,33.98230701537477,L 30.913446209287088,641.6255805027913,L 896.4183272437242,788.0147736233118,L 25.394251046970794,621.8580447107788,L 368.2292878985197,28.050342269147507,L 745,924.352447854375,L 762.5551295397081,86.2793165040124,L 44.409521914756795,680.3810308154921,L 329.19969681231044,40.7318251489732,L 812.337754976858,877.5514889601367,L 20.70767564043524,398.1232714992981,L 827.8739971158406,864.1409644839232,L 25.394251046970794,378.1419552892211,L 884.0097940896615,804.362412336372,L 10.42981325155938,520.5190703273079,L 827.8739971158403,135.85903551607663,L 530.7673545693636,989.0330969298531,L 291.36814713311423,56.63474429165052,L 947.6372742448746,300.69904489285796,L 272.9849427912678,934.2397538232952,L 187.6622450231418,122.44851103986349,L 988.2815010322572,541.0021432328346,L 172.12600288415933,135.85903551607691,L 310.11736263846956,951.7129442783653,L 986.1362036440942,561.4132844465091,L 571.5806839955815,15.256556848135745,L 983.1380581645474,581.7166858908901,L 203.74643371743605,109.70034016814401,L 979.2923243595648,601.876728500702,L 291.3681471331146,943.3652557083497,L 983.1380581645474,581.7166858908901,L 591.8168441470049,18.67924714294253,L 37.25557858363425,338.8553430980943,L 796.2535662825637,890.2996598318562,L 745,75.64755214562507,L 428.41931600441836,984.7434431518643,L 857.1946274364918,164.57191809494276,L 408.18315585299507,981.3207528570574,L 779.6496481653717,97.63688752448508,L 510.26178574284495,989.8925349026742,L 827.8739971158403,135.85903551607663,L 551.2189470011502,987.3157287304539,L 220.35035183462827,97.63688752448519,L 187.6622450231422,877.5514889601368,L 969.086553790713,358.37441949720903,L 142.80537256350823,164.5719180949427,L 974.6057489530292,378.14195528922085,L 172.12600288415945,864.1409644839232,L 237.44487046029144,86.27931650401274,L 551.2189470011502,987.3157287304539,L 187.6622450231418,122.44851103986349,L 989.5701867484406,479.4809296726916,L 157.16496314845102,149.90838697992638,L 979.2923243595648,398.12327149929763,L 157.16496314845097,850.0916130200736,L 974.6057489530292,378.14195528922085,L 203.74643371743633,890.2996598318562,L 962.7444214163658,338.8553430980943,L 220.3503518346285,902.363112475515,L 955.5904780852431,319.6189691845078,L 255.0000000000001,924.352447854375,L 203.74643371743605,109.70034016814401,L 237.44487046029172,913.7206834959875,L 947.6372742448746,300.69904489285796,L 291.3681471331146,943.3652557083497,L 938.8987625173121,282.12876219938516,L 272.98494279126714,65.7602461767051,L 103.5816727562758,788.0147736233118,L 919.1284874786484,753.8332345928338,L 61.10123748268779,717.8712378006146,L 727.0150572087318,65.76024617670464,L 80.87151252135186,753.8332345928341,L 291.36814713311423,56.63474429165052,L 61.10123748268779,717.8712378006146,L 908.1314079479487,771.1618591292386,L 52.36272575512561,699.3009551071423,L 919.1284874786484,753.8332345928338,L 142.80537256350846,835.4280819050575,L 947.6372742448744,699.300955107142,L 13.863796355905833,438.5867155534911,L 812.3377549768577,122.44851103986309,L 13.86379635590589,561.4132844465092,L 779.6496481653717,902.363112475515,L 20.70767564043524,398.1232714992981,L 857.1946274364918,164.57191809494276,L 16.86194183545257,418.28331410911005,L 827.8739971158406,864.1409644839232,L 727.0150572087318,65.76024617670464,L 812.337754976858,877.5514889601367,L 37.25557858363425,338.8553430980943,L 611.8919263542211,22.94633759215145,L 969.086553790713,641.6255805027911,L 220.3503518346285,902.363112475515,L 220.35035183462827,97.63688752448519,L 237.44487046029172,913.7206834959875,L 962.7444214163658,661.1446569019058,L 237.44487046029144,86.27931650401274,L 187.6622450231422,877.5514889601368,L 938.8987625173123,717.8712378006145,L 157.16496314845097,850.0916130200736,L 670.800303187689,40.73182514897297,L 142.80537256350846,835.4280819050575,L 254.99999999999977,75.64755214562513,L 842.8350368515489,850.0916130200737,L 11.718498967742846,458.99785676716544,L 857.1946274364916,835.4280819050574,L 129.07242273063918,179.82390404484852,L 938.8987625173121,282.12876219938516,L 310.11736263846956,951.7129442783653,L 988.2815010322572,541.0021432328346,L 571.5806839955815,15.256556848135745,L 551.2189470011502,987.3157287304539,L 203.74643371743605,109.70034016814401,L 974.6057489530292,621.8580447107788,L 611.8919263542211,22.94633759215145,L 255.0000000000001,924.352447854375,L 929.3902732214931,263.9406996901595,L 115.99020591033849,195.63758766362793,L 571.5806839955818,984.7434431518643,L 157.16496314845102,149.90838697992638,L 428.41931600441836,984.7434431518643,L 827.8739971158403,135.85903551607663,L 10,500.00000000000006,L 870.9275772693607,820.1760959551516,L 708.6318528668855,56.63474429165041,L 103.5816727562758,788.0147736233118,L 908.1314079479487,771.1618591292386,L 91.86859205205127,771.1618591292386,L 272.98494279126714,65.7602461767051,L 115.99020591033855,804.3624123363721,L 929.3902732214931,736.0593003098404,L 129.0724227306394,820.1760959551518,L 689.8826373615304,48.28705572163477,L 796.2535662825637,890.2996598318562,L 329.19969681231044,40.7318251489732,L 37.2555785836343,661.1446569019058,L 896.4183272437242,788.0147736233118,L 20.70767564043524,601.876728500702,L 796.2535662825635,109.70034016814361,L 631.7707121014803,971.9496577308526,L 142.80537256350823,164.5719180949427,L 938.8987625173121,282.12876219938516,L 220.3503518346285,902.363112475515,L 947.6372742448746,300.69904489285796,L 91.86859205205104,228.83814087076166,L 670.8003031876895,959.2681748510267,L 37.25557858363425,338.8553430980943,L 870.9275772693607,820.1760959551516,L 10.42981325155938,479.480929672692,L 842.8350368515489,149.9083869799262,L 44.40952191475674,319.61896918450805,L 870.9275772693607,820.1760959551516,L 25.394251046970794,378.1419552892211,L 708.6318528668857,943.3652557083495,L 61.101237482687736,282.1287621993855,L 727.0150572087323,934.2397538232952,L 20.70767564043524,398.1232714992981,L 842.8350368515489,149.9083869799262,L 489.738214257155,989.8925349026742,L 796.2535662825635,109.70034016814361,L 16.86194183545257,581.7166858908901,L 896.4183272437242,788.0147736233118,L 10.42981325155938,479.480929672692,L 827.8739971158403,135.85903551607663,L 489.738214257155,989.8925349026742,L 115.99020591033849,195.63758766362793,L 955.5904780852431,319.6189691845078,L 329.19969681231044,40.7318251489732,L 530.7673545693636,989.0330969298531,L 129.07242273063918,179.82390404484852,L 974.6057489530292,378.14195528922085,L 187.6622450231422,877.5514889601368,L 962.7444214163658,338.8553430980943,L 237.44487046029172,913.7206834959875,L 969.086553790713,358.37441949720903,L 157.16496314845102,149.90838697992638,L 896.4183272437242,211.98522637668805,L 70.6097267785068,263.94069969015965,L 708.6318528668857,943.3652557083495,L 13.863796355905833,438.5867155534911,L 812.337754976858,877.5514889601367,L 310.11736263846944,48.28705572163483,L 61.10123748268779,717.8712378006146,L 745,75.64755214562507,L 827.8739971158406,864.1409644839232,L 37.25557858363425,338.8553430980943,L 689.8826373615304,951.7129442783653,L 80.87151252135163,246.1667654071663,L 611.8919263542214,977.0536624078485,L 796.2535662825635,109.70034016814361,L 448.7810529988499,987.3157287304539,L 827.8739971158403,135.85903551607663,L 11.718498967742903,541.0021432328349,L 884.0097940896615,804.362412336372,L 115.99020591033855,804.3624123363721,L 919.1284874786484,753.8332345928338,L 70.60972677850691,736.0593003098406,L 884.0097940896615,804.362412336372,L 103.5816727562758,788.0147736233118,L 689.8826373615304,48.28705572163477,L 919.1284874786484,753.8332345928338,L 129.0724227306394,820.1760959551518,L 983.1380581645473,418.28331410910926,L 142.80537256350846,835.4280819050575,L 938.8987625173123,717.8712378006145,L 237.44487046029144,86.27931650401274,L 530.7673545693636,989.0330969298531,L 187.6622450231418,122.44851103986349,L 348.5816727562758,966.0176929846252,L 203.74643371743605,109.70034016814401,L 986.1362036440942,561.4132844465091,L 172.12600288415933,135.85903551607691,L 551.2189470011502,987.3157287304539,L 129.07242273063918,179.82390404484852,L 571.5806839955818,984.7434431518643,L 203.74643371743605,109.70034016814401,L 530.7673545693636,989.0330969298531,L 220.35035183462827,97.63688752448519,L 272.9849427912678,934.2397538232952,L 203.74643371743605,109.70034016814401,L 988.2815010322572,541.0021432328346,L 157.16496314845102,149.90838697992638,L 990,500,L 52.36272575512561,699.3009551071423,L 827.8739971158406,864.1409644839232,L 13.863796355905833,438.5867155534911,L 857.1946274364916,835.4280819050574,L 16.86194183545257,418.28331410911005,L 870.9275772693607,820.1760959551516,L 30.913446209286974,358.374419497209,L 812.337754976858,877.5514889601367,L 571.5806839955815,15.256556848135745,L 329.19969681231066,959.2681748510269,L 187.6622450231418,122.44851103986349,L 979.2923243595648,601.876728500702,L 571.5806839955815,15.256556848135745,L 25.394251046970794,378.1419552892211,L 745,924.352447854375,L 52.36272575512544,300.69904489285807,L 842.8350368515489,850.0916130200737,L 30.913446209287088,641.6255805027913,L 779.6496481653717,97.63688752448508,L 469.2326454306365,989.0330969298531,L 796.2535662825635,109.70034016814361,L 80.87151252135163,246.1667654071663,L 884.0097940896615,195.6375876636278,L 448.7810529988499,987.3157287304539,L 762.5551295397081,86.2793165040124,L 489.738214257155,989.8925349026742,L 727.0150572087318,65.76024617670464,L 779.6496481653717,902.363112475515,L 745,75.64755214562507,L 708.6318528668857,943.3652557083495,L 37.25557858363425,338.8553430980943,L 631.7707121014796,28.050342269147393,L 591.816844147005,981.3207528570574,L 796.2535662825635,109.70034016814361,L 708.6318528668857,943.3652557083495,L 30.913446209286974,358.374419497209,L 727.0150572087323,934.2397538232952,L 25.394251046970794,378.1419552892211,L 842.8350368515489,850.0916130200737,L 272.98494279126714,65.7602461767051,L 947.6372742448746,300.69904489285796,L 80.87151252135163,246.1667654071663,L 727.0150572087323,934.2397538232952,L 368.2292878985197,28.050342269147507,L 631.7707121014803,971.9496577308526,L 388.10807364577863,22.94633759215145,L 20.70767564043524,601.876728500702,L 857.1946274364916,835.4280819050574,L 44.40952191475674,319.61896918450805,L 896.4183272437242,211.98522637668805,L 129.07242273063918,179.82390404484852,L 979.2923243595648,398.12327149929763,L 428.4193160044179,15.256556848135745,L 571.5806839955818,984.7434431518643,L 812.3377549768577,122.44851103986309,L 10.42981325155938,520.5190703273079,L 827.8739971158406,864.1409644839232,L 30.913446209286974,358.374419497209,L 857.1946274364918,164.57191809494276,L 10.42981325155938,479.480929672692,L 857.1946274364916,835.4280819050574,L 52.36272575512544,300.69904489285807,L 651.4183272437242,33.982307015374715,L 187.6622450231422,877.5514889601368,L 670.800303187689,40.73182514897297,L 919.1284874786484,753.8332345928338,L 254.99999999999977,75.64755214562513,L 530.7673545693636,989.0330969298531,L 272.98494279126714,65.7602461767051,L 129.0724227306394,820.1760959551518,L 908.1314079479487,771.1618591292386,L 80.87151252135186,753.8332345928341,L 919.1284874786484,753.8332345928338,L 37.2555785836343,661.1446569019058,L 857.1946274364916,835.4280819050574,L 727.0150572087318,65.76024617670464,L 61.101237482687736,282.1287621993855,L 870.9275772693605,179.82390404484818,L 103.58167275627574,211.98522637668822,L 929.3902732214931,263.9406996901595,L 272.9849427912678,934.2397538232952,L 919.1284874786483,246.16676540716617,L 91.86859205205104,228.83814087076166,L 842.8350368515489,850.0916130200737,L 20.70767564043524,398.1232714992981,L 908.1314079479484,228.83814087076098,L 44.40952191475674,319.61896918450805,L 762.5551295397083,913.7206834959873,L 727.0150572087318,65.76024617670464,L 448.7810529988499,987.3157287304539,L 157.16496314845102,149.90838697992638,L 989.5701867484406,520.5190703273079,L 551.21894700115,12.684271269546059,L 510.26178574284495,989.8925349026742,L 489.7382142571552,10.1074650973257,L 16.86194183545257,418.28331410911005,L 842.8350368515489,149.9083869799262,L 11.718498967742846,458.99785676716544,L 870.9275772693607,820.1760959551516,L 13.863796355905833,438.5867155534911,L 896.4183272437242,788.0147736233118,L 689.8826373615304,48.28705572163477,L 530.7673545693636,989.0330969298531,L 779.6496481653717,97.63688752448508,L 651.4183272437242,966.0176929846252,L 408.1831558529945,18.679247142942643,L 670.8003031876895,959.2681748510267,L 762.5551295397081,86.2793165040124,L 469.2326454306365,989.0330969298531,L 172.12600288415933,135.85903551607691,L 408.18315585299507,981.3207528570574,L 870.9275772693605,179.82390404484818,L 52.36272575512544,300.69904489285807,L 796.2535662825637,890.2996598318562,L 670.800303187689,40.73182514897297,L 448.7810529988499,987.3157287304539,L 129.07242273063918,179.82390404484852,L 947.6372742448746,300.69904489285796,L 310.11736263846956,951.7129442783653,L 187.6622450231418,122.44851103986349,L 388.1080736457787,977.0536624078486,L 203.74643371743605,109.70034016814401,L 310.11736263846956,951.7129442783653,L 962.7444214163658,338.8553430980943,L 157.16496314845097,850.0916130200736,L 969.086553790713,358.37441949720903,L 203.74643371743633,890.2996598318562,L 955.5904780852431,319.6189691845078,L 348.5816727562757,33.98230701537477,L 631.7707121014803,971.9496577308526,L 428.4193160044179,15.256556848135745,L 611.8919263542214,977.0536624078485,L 708.6318528668855,56.63474429165041,L 448.7810529988499,987.3157287304539,L 779.6496481653717,97.63688752448508,L 670.8003031876895,959.2681748510267,L 30.913446209286974,358.374419497209,L 842.8350368515489,850.0916130200737,L 37.25557858363425,338.8553430980943,L 651.4183272437242,33.982307015374715,L 938.8987625173123,717.8712378006145,L 103.5816727562758,788.0147736233118,L 983.1380581645473,418.28331410910926,L 115.99020591033849,195.63758766362793,L 591.816844147005,981.3207528570574,L 611.8919263542211,22.94633759215145,L 611.8919263542214,977.0536624078485,L 779.6496481653717,97.63688752448508,L 631.7707121014803,971.9496577308526,L 310.11736263846944,48.28705572163483,L 827.8739971158406,864.1409644839232,L 20.70767564043524,601.876728500702,L 990,500,L 142.80537256350823,164.5719180949427,L 989.5701867484406,479.4809296726916,L 91.86859205205127,771.1618591292386,L 989.5701867484406,520.5190703273079,L 469.23264543063607,10.966903070146941,L 530.7673545693636,989.0330969298531,L 172.12600288415933,135.85903551607691,L 428.41931600441836,984.7434431518643,L 727.0150572087318,65.76024617670464,L 591.816844147005,981.3207528570574,L 510.2617857428446,10.1074650973257,L 651.4183272437242,966.0176929846252,L 329.19969681231044,40.7318251489732,L 61.10123748268779,717.8712378006146,L 988.2815010322571,458.9978567671652,L 142.80537256350823,164.5719180949427,L 489.738214257155,989.8925349026742,L 651.4183272437242,33.982307015374715,L 203.74643371743633,890.2996598318562,L 329.19969681231044,40.7318251489732,L 670.8003031876895,959.2681748510267,L 388.10807364577863,22.94633759215145,L 779.6496481653717,902.363112475515,L 80.87151252135163,246.1667654071663,L 919.1284874786483,246.16676540716617,L 70.6097267785068,263.94069969015965,L 870.9275772693607,820.1760959551516,L 61.101237482687736,282.1287621993855,L 779.6496481653717,902.363112475515,L 329.19969681231044,40.7318251489732,L 115.99020591033855,804.3624123363721,L 986.1362036440942,438.5867155534907,L 220.3503518346285,902.363112475515,L 670.800303187689,40.73182514897297,L 884.0097940896615,804.362412336372,L 254.99999999999977,75.64755214562513,L 469.2326454306365,989.0330969298531,L 611.8919263542211,22.94633759215145,L 938.8987625173123,717.8712378006145,L 571.5806839955815,15.256556848135745,L 530.7673545693636,989.0330969298531,L 489.7382142571552,10.1074650973257,L 670.8003031876895,959.2681748510267,L 157.16496314845102,149.90838697992638,L 551.2189470011502,987.3157287304539,L 796.2535662825635,109.70034016814361,L 571.5806839955818,984.7434431518643,L 310.11736263846944,48.28705572163483,L 510.26178574284495,989.8925349026742,L 291.36814713311423,56.63474429165052,L 857.1946274364916,835.4280819050574,L 44.409521914756795,680.3810308154921,L 969.086553790713,358.37441949720903,L 103.58167275627574,211.98522637668822,L 919.1284874786483,246.16676540716617,L 291.3681471331146,943.3652557083497,L 203.74643371743605,109.70034016814401,L 220.3503518346285,902.363112475515,L 291.36814713311423,56.63474429165052,L 827.8739971158406,864.1409644839232,L 10.42981325155938,479.480929672692,L 884.0097940896615,804.362412336372,L 61.10123748268779,717.8712378006146,L 962.7444214163658,338.8553430980943,L 129.0724227306394,820.1760959551518,L 986.1362036440942,438.5867155534907,L 80.87151252135186,753.8332345928341,L 990,500,L 25.394251046970794,621.8580447107788,L 779.6496481653717,902.363112475515,L 44.40952191475674,319.61896918450805,L 796.2535662825637,890.2996598318562,L 30.913446209287088,641.6255805027913,L 979.2923243595648,398.12327149929763,L 172.12600288415945,864.1409644839232,L 651.4183272437242,33.982307015374715,L 842.8350368515489,850.0916130200737,L 329.19969681231044,40.7318251489732,L 591.816844147005,981.3207528570574,L 571.5806839955815,15.256556848135745,L 827.8739971158406,864.1409644839232,L 272.98494279126714,65.7602461767051,L 796.2535662825637,890.2996598318562,L 708.6318528668855,56.63474429165041,L 510.26178574284495,989.8925349026742,L 142.80537256350823,164.5719180949427,L 983.1380581645473,418.28331410910926,L 220.3503518346285,902.363112475515,L 969.086553790713,358.37441949720903,L 52.36272575512561,699.3009551071423,L 989.5701867484406,520.5190703273079,L 388.10807364577863,22.94633759215145,L 510.26178574284495,989.8925349026742,L 237.44487046029144,86.27931650401274,L 919.1284874786484,753.8332345928338,L 20.70767564043524,398.1232714992981,L 857.1946274364916,835.4280819050574,L 61.101237482687736,282.1287621993855,L 812.337754976858,877.5514889601367,L 20.70767564043524,601.876728500702,L 986.1362036440942,561.4132844465091,L 329.19969681231066,959.2681748510269,L 220.35035183462827,97.63688752448519,L 938.8987625173121,282.12876219938516,L 237.44487046029172,913.7206834959875,L 929.3902732214931,263.9406996901595,L 115.99020591033855,804.3624123363721,L 947.6372742448746,300.69904489285796,L 91.86859205205127,771.1618591292386,L 727.0150572087318,65.76024617670464,L 510.26178574284495,989.8925349026742,L 510.2617857428446,10.1074650973257,L 530.7673545693636,989.0330969298531,L 708.6318528668855,56.63474429165041,L 489.738214257155,989.8925349026742,L 310.11736263846944,48.28705572163483,L 115.99020591033855,804.3624123363721,L 983.1380581645473,418.28331410910926,L 80.87151252135186,753.8332345928341,L 368.2292878985197,28.050342269147507,L 979.2923243595648,398.12327149929763,L 129.0724227306394,820.1760959551518,L 969.086553790713,358.37441949720903,L 91.86859205205104,228.83814087076166,L 796.2535662825635,109.70034016814361,L 25.394251046970794,621.8580447107788,L 983.1380581645474,581.7166858908901,L 13.86379635590589,561.4132844465092,L 812.337754976858,877.5514889601367,L 16.86194183545257,581.7166858908901,L 908.1314079479487,771.1618591292386,L 25.394251046970794,378.1419552892211,L 827.8739971158403,135.85903551607663,L 469.2326454306365,989.0330969298531,L 157.16496314845102,149.90838697992638,L 988.2815010322571,458.9978567671652,L 103.5816727562758,788.0147736233118,L 428.4193160044179,15.256556848135745,L 489.738214257155,989.8925349026742,L 203.74643371743605,109.70034016814401,L 919.1284874786483,246.16676540716617,L 220.35035183462827,97.63688752448519,L 955.5904780852431,680.3810308154922,L 172.12600288415945,864.1409644839232,L 670.800303187689,40.73182514897297,L 938.8987625173123,717.8712378006145,L 10,500.00000000000006,L 842.8350368515489,149.9083869799262,L 469.2326454306365,989.0330969298531,L 745,75.64755214562507,L 762.5551295397083,913.7206834959873,L 11.718498967742903,541.0021432328349,L 962.7444214163658,661.1446569019058,L 157.16496314845097,850.0916130200736,L 254.99999999999977,75.64755214562513,L 255.0000000000001,924.352447854375,L 938.8987625173121,282.12876219938516,L 115.99020591033849,195.63758766362793,L 962.7444214163658,338.8553430980943,L 103.58167275627574,211.98522637668822,L 857.1946274364916,835.4280819050574,L 157.16496314845102,149.90838697992638,L 689.8826373615304,951.7129442783653,L 762.5551295397081,86.2793165040124,L 631.7707121014803,971.9496577308526,L 689.8826373615304,48.28705572163477,L 469.2326454306365,989.0330969298531,L 651.4183272437242,33.982307015374715,L 44.409521914756795,680.3810308154921,L 842.8350368515489,850.0916130200737,L 237.44487046029144,86.27931650401274,L 237.44487046029172,913.7206834959875,L 896.4183272437242,211.98522637668805,L 52.36272575512544,300.69904489285807,L 827.8739971158406,864.1409644839232,L 25.394251046970794,621.8580447107788,L 812.337754976858,877.5514889601367,L 10,500.00000000000006,L 908.1314079479487,771.1618591292386,L 20.70767564043524,601.876728500702,L 842.8350368515489,850.0916130200737,L 61.101237482687736,282.1287621993855,L 745,924.352447854375,L 745,75.64755214562507,L 489.738214257155,989.8925349026742,L 291.36814713311423,56.63474429165052,L 708.6318528668857,943.3652557083495,L 20.70767564043524,398.1232714992981,L 896.4183272437242,788.0147736233118,L 25.394251046970794,378.1419552892211,L 689.8826373615304,951.7129442783653,L 272.98494279126714,65.7602461767051,L 870.9275772693607,820.1760959551516,L 80.87151252135163,246.1667654071663,L 857.1946274364916,835.4280819050574,L 237.44487046029144,86.27931650401274,L 938.8987625173121,282.12876219938516,L 80.87151252135163,246.1667654071663,L 908.1314079479484,228.83814087076098,L 70.6097267785068,263.94069969015965,L 745,924.352447854375,L 310.11736263846944,48.28705572163483,L 796.2535662825637,890.2996598318562,L 448.7810529988499,12.684271269546059,L 779.6496481653717,902.363112475515,L 220.35035183462827,97.63688752448519,L 510.26178574284495,989.8925349026742,L 329.19969681231044,40.7318251489732,L 52.36272575512561,699.3009551071423,L 962.7444214163658,661.1446569019058,L 571.5806839955815,15.256556848135745,L 762.5551295397083,913.7206834959873,L 20.70767564043524,398.1232714992981,L 884.0097940896615,195.6375876636278,L 44.40952191475674,319.61896918450805,L 812.337754976858,877.5514889601367,L 254.99999999999977,75.64755214562513,L 368.22928789851983,971.9496577308526,L 187.6622450231418,122.44851103986349,L 986.1362036440942,561.4132844465091,L 348.5816727562757,33.98230701537477,L 37.2555785836343,661.1446569019058,L 988.2815010322572,541.0021432328346,L 30.913446209287088,641.6255805027913,L 986.1362036440942,561.4132844465091,L 291.3681471331146,943.3652557083497,L 220.35035183462827,97.63688752448519,L 827.8739971158406,864.1409644839232,L 70.6097267785068,263.94069969015965,L 962.7444214163658,338.8553430980943,L 80.87151252135163,246.1667654071663,L 842.8350368515489,850.0916130200737,L 70.60972677850691,736.0593003098406,L 745,75.64755214562507,L 448.7810529988499,987.3157287304539,L 172.12600288415933,135.85903551607691,L 779.6496481653717,902.363112475515,L 16.86194183545257,418.28331410911005,L 884.0097940896615,195.6375876636278,L 329.19969681231066,959.2681748510269,L 388.10807364577863,22.94633759215145,L 947.6372742448744,699.300955107142,L 16.86194183545257,581.7166858908901,L 779.6496481653717,902.363112475515,L 25.394251046970794,378.1419552892211,L 762.5551295397083,913.7206834959873,L 631.7707121014796,28.050342269147393,L 929.3902732214931,736.0593003098404,L 11.718498967742903,541.0021432328349,L 955.5904780852431,680.3810308154922,L 11.718498967742846,458.99785676716544,L 983.1380581645474,581.7166858908901,L 310.11736263846956,951.7129442783653,L 908.1314079479484,228.83814087076098,L 255.0000000000001,924.352447854375,L 237.44487046029144,86.27931650401274,L 896.4183272437242,788.0147736233118,L 670.800303187689,40.73182514897297,L 727.0150572087323,934.2397538232952,L 551.21894700115,12.684271269546059,L 489.738214257155,989.8925349026742,L 329.19969681231044,40.7318251489732,L 631.7707121014803,971.9496577308526,L 708.6318528668855,56.63474429165041,L 812.337754976858,877.5514889601367,L 368.2292878985197,28.050342269147507,L 651.4183272437242,966.0176929846252,L 762.5551295397081,86.2793165040124,L 530.7673545693636,989.0330969298531,L 142.80537256350823,164.5719180949427,L 979.2923243595648,398.12327149929763,L 91.86859205205127,771.1618591292386,L 969.086553790713,358.37441949720903,L 291.3681471331146,943.3652557083497,L 448.7810529988499,12.684271269546059,L 591.816844147005,981.3207528570574,L 779.6496481653717,97.63688752448508,L 61.101237482687736,282.1287621993855,L 796.2535662825637,890.2996598318562,L 10,500.00000000000006,L 796.2535662825635,109.70034016814361,L 44.40952191475674,319.61896918450805,L 919.1284874786483,246.16676540716617,L 157.16496314845097,850.0916130200736,L 689.8826373615304,48.28705572163477,L 172.12600288415945,864.1409644839232,L 929.3902732214931,736.0593003098404,L 651.4183272437242,33.982307015374715,L 796.2535662825637,890.2996598318562,L 591.8168441470049,18.67924714294253,L 727.0150572087323,934.2397538232952,L 129.07242273063918,179.82390404484852,L 962.7444214163658,338.8553430980943,L 44.409521914756795,680.3810308154921,L 988.2815010322571,458.9978567671652,L 469.23264543063607,10.966903070146941,L 551.2189470011502,987.3157287304539,L 727.0150572087318,65.76024617670464,L 796.2535662825637,890.2996598318562,L 762.5551295397081,86.2793165040124,L 80.87151252135163,246.1667654071663,L 670.8003031876895,959.2681748510267,L 611.8919263542211,22.94633759215145,L 272.9849427912678,934.2397538232952,L 329.19969681231044,40.7318251489732,L 745,924.352447854375,L 13.863796355905833,438.5867155534911,L 870.9275772693605,179.82390404484818,L 115.99020591033849,195.63758766362793,L 745,924.352447854375,L 11.718498967742903,541.0021432328349,L 983.1380581645474,581.7166858908901,L 10.42981325155938,520.5190703273079,L 979.2923243595648,601.876728500702,L 20.70767564043524,398.1232714992981,L 870.9275772693607,820.1760959551516,L 30.913446209287088,641.6255805027913,L 857.1946274364916,835.4280819050574,L 708.6318528668855,56.63474429165041,L 827.8739971158406,864.1409644839232,L 44.409521914756795,680.3810308154921,L 896.4183272437242,211.98522637668805,L 172.12600288415945,864.1409644839232,L 220.35035183462827,97.63688752448519,L 812.337754976858,877.5514889601367,L 670.800303187689,40.73182514897297,L 762.5551295397083,913.7206834959873,L 708.6318528668855,56.63474429165041,L 896.4183272437242,788.0147736233118,L 11.718498967742846,458.99785676716544,L 827.8739971158403,135.85903551607663,L 348.5816727562758,966.0176929846252,L 388.10807364577863,22.94633759215145,L 611.8919263542214,977.0536624078485,L 448.7810529988499,12.684271269546059,L 571.5806839955818,984.7434431518643,L 510.2617857428446,10.1074650973257,L 689.8826373615304,951.7129442783653,L 172.12600288415933,135.85903551607691,L 983.1380581645474,581.7166858908901,L 187.6622450231418,122.44851103986349,L 969.086553790713,641.6255805027911,L 13.86379635590589,561.4132844465092,L 870.9275772693607,820.1760959551516,L 20.70767564043524,601.876728500702,L 551.21894700115,12.684271269546059,L 896.4183272437242,788.0147736233118,L 591.8168441470049,18.67924714294253,L 974.6057489530292,621.8580447107788,L 52.36272575512561,699.3009551071423,L 986.1362036440942,438.5867155534907,L 142.80537256350823,164.5719180949427,L 812.337754976858,877.5514889601367,L 52.36272575512544,300.69904489285807,L 908.1314079479484,228.83814087076098,L 91.86859205205127,771.1618591292386,L 990,500,L 10.42981325155938,479.480929672692,L 510.2617857428446,10.1074650973257,L 489.738214257155,989.8925349026742,L 254.99999999999977,75.64755214562513,L 974.6057489530292,621.8580447107788,L 103.58167275627574,211.98522637668822,L 955.5904780852431,319.6189691845078,L 310.11736263846956,951.7129442783653,L 896.4183272437242,211.98522637668805,L 142.80537256350823,164.5719180949427,L 551.2189470011502,987.3157287304539,L 428.4193160044179,15.256556848135745,L 37.2555785836343,661.1446569019058,L 986.1362036440942,438.5867155534907,L 103.58167275627574,211.98522637668822,L 651.4183272437242,966.0176929846252,L 631.7707121014796,28.050342269147393,L 955.5904780852431,680.3810308154922,L 203.74643371743605,109.70034016814401,L 368.22928789851983,971.9496577308526,L 310.11736263846944,48.28705572163483,L 857.1946274364916,835.4280819050574,L 25.394251046970794,621.8580447107788,L 469.23264543063607,10.966903070146941,L 988.2815010322572,541.0021432328346,L 11.718498967742903,541.0021432328349,L 969.086553790713,641.6255805027911,L 70.60972677850691,736.0593003098406,L 510.2617857428446,10.1074650973257,L 827.8739971158406,864.1409644839232,L 388.10807364577863,22.94633759215145,L 220.3503518346285,902.363112475515,L 272.98494279126714,65.7602461767051,L 884.0097940896615,804.362412336372,L 52.36272575512561,699.3009551071423,L 842.8350368515489,850.0916130200737,L 571.5806839955815,15.256556848135745,L 631.7707121014803,971.9496577308526,L 591.8168441470049,18.67924714294253" />
    Sorry, your browser does not support inline SVG.
</svg>